<?xml version="1.0" encoding="utf-8"?>
<!-- Generator: Adobe Illustrator 25.4.1, SVG Export Plug-In . SVG Version: 6.00 Build 0)  -->
<svg version="1.1" id="Layer_1"
	xmlns="http://www.w3.org/2000/svg"
	xmlns:xlink="http://www.w3.org/1999/xlink" x="0px" y="0px" viewBox="0 0 2233.72 499.68" style="enable-background:new 0 0 2233.72 499.68;" xml:space="preserve">
	<style type="text/css">
	.background{display:none;fill:#231F20;}
	.text{fill:#1F2329;}

    @media (prefers-color-scheme: dark) {		
		.text{fill:#ADBAC7;}
    }
	</style>
	<rect class="background" width="2233.72" height="499.68"/>
	<g>
		<path class="text" d="M1560.93,199.33c-5.11-19.73-14.61-36.68-31.42-48.89c-15.77-11.46-33.79-16.63-52.91-17.66
		c-7.66-0.41-27.96-0.55-49.23-0.58c5.23,6.21,8.4,14.21,8.4,22.94c0,8.72-3.15,16.7-8.36,22.91c13.34,0.03,35.38,0.11,39.3,0.28
		c35.39,1.53,47.87,30.41,47.19,55.96c-1.28,0-2.38,0-3.49,0c-15.34,0-30.67-0.03-46.01,0.01c-9.97,0.02-19.87,0.82-29.58,3.21
		c-31.76,7.82-54.65,26.31-66.53,57.03c-9.7,25.07-10.1,50.83-2.58,76.58c6.8,23.28,20.58,41.41,41.61,53.71
		c17.21,10.07,36.05,13.97,55.8,13.99c1.91,0,5.54,0,10.34,0.01c50.71,0.01,91.83-41.09,91.83-91.8c0-43.78,0-90.57-0.01-109.03
		C1565.27,224.95,1564.21,212,1560.93,199.33z M1511.09,363.23c-8.2,19.02-26.04,30.16-47.26,29.54
		c-26.17-0.77-45.42-18.14-49-44.13c-1.64-11.86-1.19-23.53,2.72-34.94c7.91-23.1,28.84-35.69,53.27-32.99
		c24.54,2.71,41.22,19.7,44.43,44.23c0.51,3.86,0.76,7.76,0.95,9.73C1516.08,345.78,1514.76,354.74,1511.09,363.23z"/>
		<path class="text" d="M1400.53,132.21c-0.15,0-0.29-0.02-0.44-0.02c-12.67,0-22.95,10.27-22.95,22.95
		c0,12.67,10.27,22.95,22.95,22.95c0.14,0,0.27-0.02,0.41-0.02c12.48-0.22,22.54-10.39,22.54-22.93
		C1423.04,142.61,1413,132.45,1400.53,132.21z"/>
	</g>
	<g>
		<path class="text" d="M2061.98,134.72c-24.64-8.5-49.83-9.03-74.97-2.48c-24.1,6.28-42.9,19.98-55.28,41.85
		c-9.39,16.59-13.44,34.72-13.58,53.58c-0.29,37.36-0.19,74.72-0.03,112.08c0.06,12.43,1.83,24.7,5.43,36.64
		c7.64,25.33,22.97,43.94,47.69,54.21c12.18,5.06,24.87,7.38,37.81,8.23c-5.4-6.24-8.69-14.36-8.69-23.24
		c0-8.9,3.31-17.03,8.73-23.28c-10.91-1.52-20.23-6.75-27.33-15.76c-10.21-12.97-12.43-28.32-12.83-44.62c1.22,0,2.12,0,3.01,0
		c16.19,0,32.39-0.06,48.58,0.01c11.87,0.05,23.75-1.29,35.14-4.61c29.15-8.49,49.7-26.53,59.62-55.53
		c8.8-25.69,9.11-51.83,1.86-77.83C2109.44,166.33,2089.12,144.09,2061.98,134.72z M2064.35,256.11
		c-7.06,17.12-19.87,26.87-38.18,29.38c-10.36,1.42-20.51,0.55-30.16-3.68c-13.32-5.84-21.77-16.13-25.91-29.86
		c-4.3-14.26-4.49-28.72-0.13-43.01c5.35-17.55,17.56-27.73,35.34-31.26c10.14-2.01,20.35-1.78,30.31,1.21
		c18.67,5.61,28.8,18.71,32.13,37.47c0.81,4.56,0.99,9.24,1.46,13.86C2068.93,239.14,2067.76,247.84,2064.35,256.11z"/>
		<path class="text" d="M2035.96,392.73c-1.61,0-3.19,0.17-4.71,0.49c-10.37,2.17-18.16,11.36-18.16,22.37
		c0,12.63,10.24,22.86,22.86,22.86c1.27,0,2.51-0.13,3.73-0.33c10.85-1.78,19.14-11.18,19.14-22.53
		C2058.82,402.96,2048.59,392.73,2035.96,392.73z"/>
	</g>
	<g>
		<path class="text" d="M858.77,134.72c-24.64-8.5-49.83-9.03-74.97-2.48c-24.1,6.28-42.9,19.98-55.28,41.85
		c-9.39,16.59-13.44,34.72-13.58,53.58c-0.29,37.36-0.19,74.72-0.03,112.08c0.06,12.43,1.83,24.7,5.43,36.64
		c7.64,25.33,22.97,43.94,47.69,54.21c12.18,5.06,24.87,7.38,37.81,8.23c-5.4-6.24-8.69-14.36-8.69-23.24
		c0-8.9,3.31-17.03,8.73-23.28c-10.91-1.52-20.23-6.75-27.33-15.76c-10.21-12.97-12.43-28.32-12.83-44.62c1.22,0,2.12,0,3.01,0
		c16.19,0,32.39-0.06,48.58,0.01c11.87,0.05,23.75-1.29,35.14-4.61c29.15-8.49,49.7-26.53,59.62-55.53
		c8.8-25.69,9.11-51.83,1.86-77.83C906.23,166.33,885.9,144.09,858.77,134.72z M861.13,256.11c-7.06,17.12-19.87,26.87-38.18,29.38
		c-10.36,1.42-20.51,0.55-30.16-3.68c-13.32-5.84-21.77-16.13-25.91-29.86c-4.3-14.26-4.49-28.72-0.13-43.01
		c5.35-17.55,17.56-27.73,35.34-31.26c10.14-2.01,20.35-1.78,30.31,1.21c18.67,5.61,28.8,18.71,32.13,37.47
		c0.81,4.56,0.99,9.24,1.46,13.86C865.72,239.14,864.54,247.84,861.13,256.11z"/>
		<path class="text" d="M832.75,392.73c-1.61,0-3.19,0.17-4.71,0.49c-10.37,2.17-18.16,11.36-18.16,22.37
		c0,12.63,10.24,22.86,22.86,22.86c1.27,0,2.51-0.13,3.73-0.33c10.85-1.78,19.14-11.18,19.14-22.53
		C855.61,402.96,845.37,392.73,832.75,392.73z"/>
	</g>
	<g>
		<path class="text" d="M1800.13,152.8c-9.25-0.11-18.85-0.3-22.03-0.73c-13.69-1.83-24.28-8.5-29.57-21.74
		c-1.9-4.75-3.43-9.9-3.83-14.96c-0.81-10.24-0.73-20.55-1.01-30.83c-0.04-1.53,0.05-3.07-0.06-5.22
		c-29.36,0.7-16.44,0.39-45.8,1.09c-0.04,5.5,0.23,10.88-0.05,16.23c-0.42,8.05-0.46,16.21-1.88,24.1
		c-2.94,16.36-12.42,27.12-29.09,30.81c-0.83,0.18-1.67,0.27-2.5,0.41c4.48,5.52,7.18,12.54,7.18,20.19c0,7.84-2.83,15.02-7.52,20.6
		c14.46,2.84,24.23,12.04,28.51,26.88c2.24,7.77,2.73,15.73,2.73,23.76c-0.02,31.57-0.03,63.14,0,94.71
		c0.01,11.84,0.88,23.6,3.58,35.17c6.98,29.98,24.6,50.27,54.27,59.57c14.92,4.68,30.29,5.98,45.83,5.97c4.33,0,8.65,0,13.11,0
		v-45.96c-1.7,0-3.15,0.01-4.59,0c-8.38-0.05-16.77,0.36-25.07-1.38c-13.84-2.91-24.65-9.87-30.85-22.98
		c-4.02-8.51-5.21-17.6-5.2-26.92c0.02-33.1-0.06-66.19,0.08-99.28c0.02-5.84,0.48-11.75,1.47-17.5
		c3.35-19.6,15.16-30.84,34.95-32.79c2.17-0.21,9.64-0.35,17.33-0.44c10.61-0.13,19.15-8.77,19.15-19.38
		C1819.28,161.57,1810.75,152.93,1800.13,152.8z"/>
		<path class="text" d="M1641.71,153.05c-0.76-0.09-1.5-0.23-2.28-0.23c-10.68,0-19.34,8.66-19.34,19.34
		c0,10.68,8.66,19.34,19.34,19.34c0.63,0,1.22-0.13,1.83-0.18c9.81-0.94,17.51-9.1,17.51-19.16
		C1658.77,162.26,1651.3,154.19,1641.71,153.05z"/>
	</g>
	<g>
		<path class="text" d="M580.57,131.53h-0.93c-10.41,0-19.64,6.67-22.91,16.55c-7.56,22.86-15.88,47.88-22.92,69.32
		c-11.13,33.93-22.36,67.83-33.07,101.9c-4.52,14.36-7.84,29.1-11.66,43.67c-0.87,3.31-1.58,6.65-2.37,9.98
		c-0.51-0.6-0.69-1.18-0.84-1.76c-5.84-22.56-11.31-45.23-17.61-67.67c-6.11-21.76-13.07-43.28-19.67-64.91
		c-6.34-20.79-14.01-44.4-21.36-67.37c-6.43,10.5-17.97,17.54-31.16,17.54c-5.28,0-10.29-1.15-14.83-3.17
		c7.98,25.31,15.97,50.61,23.94,75.92c9.75,30.97,19.49,61.94,29.24,92.91c8.65,27.48,17.32,54.95,25.92,82.45
		c0.47,1.49,1.13,1.91,2.65,1.91c15.67-0.06,31.34-0.07,47.01,0.02c1.82,0.01,2.38-0.71,2.89-2.24
		c9.14-27.69,18.32-55.37,27.5-83.05c10.29-31.01,20.59-62.02,30.88-93.04c8.05-24.27,22.38-67.57,32.21-97.26
		C608.65,147.63,597.02,131.53,580.57,131.53z"/>
		<path class="text" d="M418.84,145.21c-3-9.72-12.06-16.79-22.77-16.79c-13.16,0-23.83,10.67-23.83,23.83c0,0.19,0.02,0.37,0.03,0.55
		c0.3,12.9,10.83,23.27,23.8,23.27c13.16,0,23.83-10.67,23.83-23.83C419.9,149.79,419.53,147.43,418.84,145.21z"/>
	</g>
	<g>
		<path class="text" d="M239.61,359.06c-4.13,12.23-11.54,21.66-23.63,27.01c-8.87,3.92-18.23,4.76-27.74,3.8
		c-14.96-1.51-26.87-8.17-34.51-21.47c-5.23-9.1-7.33-19.05-7.34-29.45c-0.04-49.21-0.04-98.42,0.02-147.63
		c0.01-4.08,0.34-8.2,0.97-12.23c1.63-10.41,5.57-19.82,13.09-27.43c8.6-8.69,19.36-12.32,31.3-12.8
		c14.14-0.57,27.09,2.63,37.28,13.16c7.49,9.99,11.01,19.57,12.66,27.33c2.14,10.07,10.94,17.31,21.24,17.31h5.7
		c12.57,0,22.51-10.77,21.4-23.29c-0.01-0.07-0.01-0.14-0.02-0.21c-0.91-10.1-3.38-19.87-7.17-29.28
		c-7.4-18.38-19.45-32.71-37.07-42.06c-11.99-6.36-24.89-9.55-38.37-10.78c-15.6-1.43-31.02-0.55-46.12,3.69
		c-23.57,6.62-41.23,20.63-52.1,42.74c-7.76,15.78-11.03,32.67-11.08,50.1c-0.16,51.11-0.11,102.23-0.03,153.35
		c0.02,14.06,2.23,27.82,7.07,41.07c10.02,27.44,29.18,45.16,57.35,52.58c22.3,5.87,44.83,5.73,67-0.81
		c26.57-7.83,44.56-25.15,54.28-51.05c2.27-6.04,3.88-12.19,5.03-18.41c-6.11,4.4-13.59,7.02-21.68,7.02
		C256.24,371.33,246.43,366.57,239.61,359.06z"/>
		<path class="text" d="M267.16,309.59c-13.53,0-24.5,10.97-24.5,24.5c0,1.22,0.12,2.4,0.29,3.57c1.73,11.84,11.9,20.94,24.22,20.94
		c12.06,0,22.06-8.72,24.1-20.19c0.25-1.4,0.4-2.84,0.4-4.32C291.66,320.56,280.69,309.59,267.16,309.59z"/>
	</g>
	<g>
		<path class="text" d="M1249.14,100.58c-13.65,0-27.3,0.11-40.94-0.09c-2.96-0.04-4.25,0.89-5.37,3.55
		c-13.65,32.38-27.49,64.69-41.14,97.07c-6.59,15.65-18.53,44.78-25.08,60.89c-1.63,4.02-7.36,3.93-8.87-0.14
		c-1.67-4.49-3.35-8.9-5.19-13.24c-20.57-48.54-41.29-97.01-61.87-145.54c-0.84-1.99-1.84-2.57-3.9-2.55
		c-14.14,0.09-28.28,0.04-42.42,0.05c-0.96,0-1.92,0.09-2.9,0.14v286.38c6.44-5.58,14.82-8.98,23.98-8.98
		c9.17,0,17.54,3.4,23.98,8.98c0.04-62.29,0.81-124.51-0.58-186.79c0.8,0.91,1.25,1.89,1.5,2.92c4.02,16.1,8.68,32.02,15.14,47.33
		c8.96,21.22,26.25,61.75,39.41,92.55c6.41,15.02,27.69,15.04,34.13,0.03c7.25-16.91,15.29-35.64,20.79-48.45
		c13.08-30.46,27.14-60.56,34.29-93.21c0.1-0.47,0.71-0.83,1.55-1.77c-2.08,72.05-0.85,143.44-1.12,214.82
		c-0.05,13.27,10.72,24.04,23.99,24.04c13.25,0,23.99-10.74,23.99-23.99v-314C1251.27,100.58,1250.2,100.58,1249.14,100.58z"/>
		<path class="text" d="M1035.43,390.86c-13.21,0-23.92,10.68-23.98,23.88c0,0.04-0.01,0.07-0.01,0.11
		c0,13.25,10.74,23.98,23.98,23.98c11.64,0,21.33-8.29,23.52-19.28c0.3-1.52,0.47-3.09,0.47-4.7
		C1059.42,401.6,1048.68,390.86,1035.43,390.86z"/>
	</g>
</svg>
